#!OML:ASF \\sashay\E\basketball\basketball\Project 1\Capture day 1\Session 1\Subject.ASF
:FULLY-SPECIFIED
:DEGREES
133
root -36.4569 15.6392 -0.828508 -171.152 63.4198 -176.815
lowerback 14.5741 2.60126 -3.07382
upperback 11.3409 4.14879 1.09414
thorax 3.61916 2.29039 2.43118
lowerneck 5.64542 -15.0653 -14.8799
upperneck -16.9745 -18.7301 27.3953
head -1.45959 -10.1402 10.9274
rclavicle -4.19436e-014 -1.03368e-014
rhumerus -18.1985 50.7842 -105.45
rradius 69.7078
rwrist -23.879
rhand -41.3262 46.1106
rfingers 7.12502
rthumb -14.2459 16.6192
lclavicle -4.19436e-014 -1.03368e-014
lhumerus -22.903 -8.35816 92.0628
lradius 82.9377
lwrist 23.6107
lhand -18.8204 48.1547
lfingers 7.12502
lthumb 7.47854 78.0025
rfemur -14.9245 -12.4123 15.9493
rtibia 36.3671
rfoot -13.2988 -27.7741
rtoes -27.6281
lfemur -26.3503 -1.47588 -17.9459
ltibia 42.9284
lfoot -17.1315 -2.77849
ltoes -12.3737
134
root -36.4866 15.6429 -0.802427 -170.3 62.529 -176.791
lowerback 14.129 2.28078 -3.02093
upperback 11.0968 3.69949 1.25166
thorax 3.60685 2.04754 2.63231
lowerneck 5.36692 -15.0451 -14.9746
upperneck -16.8625 -18.7094 27.3003
head -1.38732 -10.0987 10.8768
rclavicle -6.22196e-014 3.97569e-015
rhumerus -17.8139 51.1203 -105.169
rradius 69.5187
rwrist -24.1596
rhand -42.7201 46.8289
rfingers 7.12502
rthumb -15.5888 17.4372
lclavicle -6.22196e-014 3.97569e-015
lhumerus -22.5204 -7.98404 92.091
lradius 82.5866
lwrist 23.535
lhand -18.5471 48.3118
lfingers 7.12502
lthumb 7.74228 78.1501
rfemur -15.8697 -12.7685 16.401
rtibia 36.4544
rfoot -14.9531 -27.8002
rtoes -23.4765
lfemur -27.7073 -1.81266 -17.7423
ltibia 43.1163
lfoot -16.8428 -3.27685
ltoes -11.4329
135
root -36.5279 15.6235 -0.800827 -170.552 60.8968 -176.986
lowerback 14.7679 1.60883 -2.34567
upperback 11.0083 2.88701 1.34203
thorax 3.24433 1.6917 2.41207
lowerneck 5.28304 -15.0026 -15.0724
upperneck -16.894 -18.6448 27.3082
head -1.38341 -10.0559 10.8947
rclavicle -4.25399e-014 -2.48481e-014
rhumerus -17.5265 51.2566 -105.015
rradius 69.3118
rwrist -24.3717
rhand -43.334 46.9566
rfingers 7.12502
rthumb -16.1799 17.6118
lclavicle -4.25399e-014 -2.48481e-014
lhumerus -22.2369 -7.67642 92.064
lradius 82.2429
lwrist 23.4813
lhand -18.2477 48.2431
lfingers 7.12502
lthumb 8.0313 78.0705
rfemur -15.761 -13.854 16.427
rtibia 36.6527
rfoot -16.9626 -27.6063
rtoes -18.6236
lfemur -28.1705 -3.50293 -17.6892
ltibia 43.2074
lfoot -16.5098 -3.19058
ltoes -11.024
136
root -36.5322 15.6137 -0.802098 -170.508 60.7658 -176.941
lowerback 14.855 1.52268 -2.24017
upperback 10.9635 2.77994 1.35078
thorax 3.15865 1.64423 2.36988
lowerneck 5.3593 -14.947 -15.1337
upperneck -17.0131 -18.5567 27.3568
head -1.43487 -10.0175 10.9458
rclavicle -3.47873e-014 -1.45113e-014
rhumerus -17.3143 51.3588 -104.989
rradius 69.055
rwrist -24.7125
rhand -43.4028 46.6822
rfingers 7.12502
rthumb -16.2463 17.3428
lclavicle -3.47873e-014 -1.45113e-014
lhumerus -22.0591 -7.49688 91.9448
lradius 81.9301
lwrist 23.6124
lhand -18.1691 48.2678
lfingers 7.12502
lthumb 8.1071 78.0923
rfemur -15.9073 -13.958 16.4445
rtibia 36.9089
rfoot -16.9701 -27.6558
rtoes -18.8656
lfemur -28.1807 -3.85643 -17.5834
ltibia 43.2152
lfoot -16.4099 -3.4363
ltoes -8.2277
137
root -36.4991 15.6058 -0.827362 -170.62 61.8937 -176.86
lowerback 14.5293 1.87201 -2.48522
upperback 11.1097 3.2243 1.22371
thorax 3.46237 1.852 2.34006
lowerneck 5.36131 -14.8932 -15.1717
upperneck -17.0743 -18.4654 27.4322
head -1.45698 -9.97397 10.991
rclavicle 1.61016e-014 -1.51076e-014
rhumerus -17.111 51.4753 -105.035
rradius 68.7826
rwrist -24.9609
rhand -43.4391 46.5451
rfingers 7.12502
rthumb -16.2812 17.2086
lclavicle 1.61016e-014 -1.51076e-014
lhumerus -21.8376 -7.34548 91.7442
lradius 81.577
lwrist 23.6773
lhand -18.0636 48.4122
lfingers 7.12502
lthumb 8.20891 78.2328
rfemur -15.8271 -13.5494 16.1917
rtibia 37.0673
rfoot -16.4883 -27.1904
rtoes -20.2051
lfemur -27.4821 -3.4719 -17.6066
ltibia 43.1864
lfoot -16.9824 -3.48364
ltoes -5.41275
138
root -36.5 15.599 -0.828204 -170.718 61.9242 -177.006
lowerback 14.508 1.86938 -2.52629
upperback 11.1462 3.22223 1.19146
thorax 3.51387 1.85028 2.33207
lowerneck 5.2562 -14.9044 -15.2498
upperneck -17.2176 -18.4343 27.6213
head -1.45123 -9.95835 11.0639
rclavicle 2.5842e-014 -7.95139e-016
rhumerus -16.7184 51.5689 -104.811
rradius 68.5916
rwrist -25.0781
rhand -43.3914 46.0672
rfingers 7.12502
rthumb -16.2352 16.727
lclavicle 2.5842e-014 -7.95139e-016
lhumerus -21.427 -7.19674 91.5999
lradius 81.1416
lwrist 23.5494
lhand -17.782 48.5628
lfingers 7.12502
lthumb 8.48074 78.3726
rfemur -15.8893 -13.683 16.1127
rtibia 37.1221
rfoot -16.3549 -27.0644
rtoes -20.2558
lfemur -27.4902 -3.60191 -17.6314
ltibia 43.1867
lfoot -17.1899 -3.85805
ltoes -1.47243
139
root -36.4986 15.6033 -0.827091 -170.589 61.9489 -176.873
lowerback 14.5027 1.90131 -2.49954
upperback 11.2065 3.27535 1.26785
thorax 3.57629 1.87741 2.39389
lowerneck 5.23558 -14.9905 -15.4168
upperneck -17.5387 -18.4978 27.8763
head -1.47097 -9.99754 11.1786
rclavicle -5.20816e-014 -3.16068e-014
rhumerus -16.2345 51.7113 -104.372
rradius 68.401
rwrist -25.1905
rhand -43.3904 45.5372
rfingers 7.12502
rthumb -16.2343 16.1969
lclavicle -5.20816e-014 -3.16068e-014
lhumerus -21.021 -6.98239 91.6004
lradius 80.7576
lwrist 23.4114
lhand -17.2396 48.4253
lfingers 7.12502
lthumb 9.00414 78.2132
rfemur -15.906 -13.7136 16.2094
rtibia 37.1102
rfoot -16.4584 -27.0769
rtoes -20.0411
lfemur -27.58 -3.39157 -17.6271
ltibia 43.2523
lfoot -16.9409 -4.08302
ltoes 2.07828
140
root -36.4967 15.6101 -0.827934 -170.463 61.8833 -176.681
lowerback 14.6288 1.92286 -2.31829
upperback 11.1898 3.32131 1.30372
thorax 3.49385 1.91227 2.31794
lowerneck 5.29213 -15.0973 -15.5009
upperneck -17.7555 -18.6149 28.0491
head -1.48327 -10.0676 11.2495
rclavicle -3.26007e-014 7.7526e-015
rhumerus -15.973 51.628 -104.232
rradius 68.1277
rwrist -25.0789
rhand -43.5608 45.5461
rfingers 7.12502
rthumb -16.3984 16.2193
lclavicle -3.26007e-014 7.7526e-015
lhumerus -20.7946 -6.9019 91.5567
lradius 80.4139
lwrist 23.2915
lhand -16.8354 48.2032
lfingers 7.12502
lthumb 9.39421 77.9739
rfemur -15.8296 -13.7614 16.322
rtibia 37.0872
rfoot -16.5999 -27.0987
rtoes -19.4578
lfemur -27.6653 -3.11709 -17.6446
ltibia 43.3643
lfoot -15.1106 -0.0143208
ltoes -5.89611
141
root -36.5051 15.6084 -0.823929 -170.489 61.4135 -176.757
lowerback 14.8609 1.79614 -2.1529
upperback 11.0243 3.15292 1.33335
thorax 3.20507 1.83709 2.25884
lowerneck 5.53393 -15.1227 -15.6019
upperneck -17.8881 -18.6607 28.1672
head -1.52467 -10.1107 11.3296
rclavicle -5.56597e-014 -2.78299e-015
rhumerus -16.0868 51.4446 -104.427
rradius 67.9272
rwrist -24.8971
rhand -43.7672 45.6703
rfingers 7.12502
rthumb -16.5971 16.36
lclavicle -5.56597e-014 -2.78299e-015
lhumerus -20.7881 -6.89139 91.5017
lradius 80.1157
lwrist 23.1037
lhand -16.7306 48.3087
lfingers 7.12502
lthumb 9.49531 78.0748
rfemur -15.8502 -14.0509 16.3783
rtibia 37.1184
rfoot -16.4509 -27.3345
rtoes -19.5053
lfemur -27.9218 -3.36812 -17.6766
ltibia 43.4361
lfoot -16.2554 -2.20685
ltoes -12.2524
142
root -36.4871 15.6047 -0.828273 -170.674 61.8046 -176.795
lowerback 14.8624 1.95242 -2.38986
upperback 11.0081 3.32648 1.32102
thorax 3.16863 1.90958 2.35627
lowerneck 5.97055 -15.0678 -15.7294
upperneck -18.1839 -18.5813 28.3843
head -1.65548 -10.1115 11.4954
rclavicle 7.95139e-016 -8.15017e-015
rhumerus -16.2733 51.3851 -104.713
rradius 67.8283
rwrist -24.8262
rhand -43.8343 45.0352
rfingers 7.12502
rthumb -16.6617 15.7303
lclavicle 7.95139e-016 -8.15017e-015
lhumerus -20.8938 -6.79238 91.3897
lradius 79.9832
lwrist 22.9322
lhand -16.5613 48.4397
lfingers 7.12502
lthumb 9.65866 78.1982
rfemur -15.7182 -13.9355 16.2816
rtibia 37.2207
rfoot -16.2497 -27.2879
rtoes -20.3365
lfemur -27.5719 -3.02629 -17.7326
ltibia 43.3839
lfoot -16.7992 -3.10119
ltoes -10.8721
143
root -36.4865 15.6035 -0.835154 -170.99 61.4927 -177.308
lowerback 14.7043 1.78167 -2.46194
upperback 10.9438 3.08697 1.21429
thorax 3.19838 1.78475 2.31873
lowerneck 6.18152 -15.0264 -15.6435
upperneck -18.3879 -18.4889 28.4801
head -1.76516 -10.0925 11.564
rclavicle 6.34123e-014 6.95746e-015
rhumerus -16.3374 51.3889 -105.003
rradius 67.8134
rwrist -24.6931
rhand -43.9058 43.8554
rfingers 7.12502
rthumb -16.7305 14.5563
lclavicle 6.34123e-014 6.95746e-015
lhumerus -20.8939 -6.53373 91.1097
lradius 79.8554
lwrist 22.7968
lhand -16.3524 48.352
lfingers 7.12502
lthumb 9.86022 78.1012
rfemur -15.8942 -14.4061 16.0254
rtibia 37.4648
rfoot -17.0756 -26.8664
rtoes -18.4925
lfemur -27.7 -3.37013 -17.9682
ltibia 43.271
lfoot -16.7861 -3.08023
ltoes -10.1103
